<svg xmlns="http://www.w3.org/2000/svg" width="923.448" height="439.54" viewBox="0 0 923.448 439.54">
  <g id="패스_4254" data-name="패스 4254" fill="rgba(17,30,52,0.77)">
    <path d="M 908.4226684570313 439.039794921875 L 15.02523231506348 439.039794921875 C 11.14546775817871 439.039794921875 7.497820377349854 437.5288391113281 4.754408359527588 434.7854309082031 C 2.01099681854248 432.0419006347656 0.5000556111335754 428.3943786621094 0.5000556111335754 424.5144958496094 L 0.5000556111335754 15.02532482147217 C 0.5000556111335754 11.14544200897217 2.01099681854248 7.497912883758545 4.754408359527588 4.754383087158203 C 7.497820377349854 2.010971546173096 11.14546775817871 0.5000303387641907 15.02523231506348 0.5000303387641907 L 232.9266510009766 0.5000303387641907 C 238.7015838623047 0.5000303387641907 242.8238220214844 1.598500967025757 246.7104034423828 4.173206806182861 C 251.3341674804688 7.236147880554199 282.7433471679688 28.35661888122559 288.0481872558594 32.60062026977539 C 288.2689819335938 32.77720642089844 288.4798278808594 32.94638442993164 288.6817016601563 33.1082649230957 C 293.0780639648438 36.63461685180664 293.3412170410156 36.84567642211914 299.300537109375 36.84567642211914 C 299.5326538085938 36.84567642211914 299.7738342285156 36.84544372558594 300.0247497558594 36.84520721435547 C 300.2962951660156 36.844970703125 300.5791015625 36.8447380065918 300.8741760253906 36.8447380065918 L 908.4226684570313 36.8447380065918 C 912.3025512695313 36.8447380065918 915.9500732421875 38.35567855834961 918.693603515625 41.09909057617188 C 921.43701171875 43.84261703491211 922.9479370117188 47.49014663696289 922.9479370117188 51.37002944946289 L 922.9479370117188 424.5144958496094 C 922.9479370117188 428.3943786621094 921.43701171875 432.0419006347656 918.693603515625 434.7854309082031 C 915.9500732421875 437.5288391113281 912.3025512695313 439.039794921875 908.4226684570313 439.039794921875 Z" stroke="none"/>
    <path d="M 15.02520751953125 1.000030517578125 C 11.27899169921875 1.000030517578125 7.75689697265625 2.4588623046875 5.10784912109375 5.10791015625 C 2.4588623046875 7.7569580078125 0.99993896484375 11.27896118164063 0.99993896484375 15.02520751953125 L 0.99993896484375 424.5144958496094 C 0.99993896484375 428.2607421875 2.4588623046875 431.7828674316406 5.10784912109375 434.4319152832031 C 7.75689697265625 437.0808410644531 11.27899169921875 438.539794921875 15.02520751953125 438.539794921875 L 908.4226684570313 438.539794921875 C 912.1688842773438 438.539794921875 915.6908569335938 437.0808410644531 918.3399658203125 434.4319152832031 C 920.989013671875 431.7828674316406 922.4478149414063 428.2607421875 922.4478149414063 424.5144958496094 L 922.4478149414063 51.37002563476563 C 922.4478149414063 47.62380981445313 920.989013671875 44.1016845703125 918.3399658203125 41.45260620117188 C 915.6908569335938 38.80368041992188 912.1688842773438 37.3447265625 908.4226684570313 37.3447265625 L 300.8741455078125 37.3447265625 C 300.5792236328125 37.3447265625 300.2965087890625 37.344970703125 300.0250854492188 37.34521484375 C 299.774169921875 37.34542846679688 299.5327758789063 37.34567260742188 299.300537109375 37.34567260742188 C 296.4520263671875 37.34567260742188 294.7677001953125 37.31954956054688 293.2735595703125 36.78286743164063 C 291.8070068359375 36.25604248046875 290.5858154296875 35.2764892578125 288.368896484375 33.49826049804688 C 288.1671142578125 33.33648681640625 287.95654296875 33.16757202148438 287.73583984375 32.990966796875 C 282.4501953125 28.76260375976563 251.0567626953125 7.652252197265625 246.4342651367188 4.58990478515625 C 242.6358032226563 2.07366943359375 238.59619140625 1.000030517578125 232.926513671875 1.000030517578125 L 15.02520751953125 1.000030517578125 M 15.02520751953125 3.0517578125e-05 C 15.02520751953125 3.0517578125e-05 227.2471313476563 3.0517578125e-05 232.926513671875 3.0517578125e-05 C 238.606201171875 3.0517578125e-05 242.9116821289063 1.056854248046875 246.9865112304688 3.756256103515625 C 251.0612182617188 6.4556884765625 282.9772338867188 27.903564453125 288.3605346679688 32.21014404296875 C 293.345458984375 36.19815063476563 293.2486572265625 36.34567260742188 299.3004760742188 36.34567260742188 C 299.783935546875 36.34567260742188 300.3065185546875 36.3447265625 300.8741455078125 36.3447265625 C 308.547607421875 36.3447265625 908.4226684570313 36.3447265625 908.4226684570313 36.3447265625 C 916.7207641601563 36.3447265625 923.4478149414063 43.07180786132813 923.4478149414063 51.37002563476563 L 923.4478149414063 424.5144958496094 C 923.4478149414063 432.812744140625 916.7207641601563 439.539794921875 908.4226684570313 439.539794921875 L 15.02520751953125 439.539794921875 C 6.72698974609375 439.539794921875 -6.103515625e-05 432.812744140625 -6.103515625e-05 424.5144958496094 L -6.103515625e-05 15.02520751953125 C -6.103515625e-05 6.727081298828125 6.72698974609375 3.0517578125e-05 15.02520751953125 3.0517578125e-05 Z" stroke="none" fill="#1543af"/>
  </g>
</svg>
