<svg xmlns="http://www.w3.org/2000/svg" width="452.953" height="297.46" viewBox="0 0 452.953 297.46">
  <g id="패스_2343" data-name="패스 2343" fill="rgba(17,30,52,0.77)">
    <path d="M 440.8737182617188 296.9602966308594 L 12.07876682281494 296.9602966308594 C 8.985933303833008 296.9602966308594 6.078267097473145 295.7559204101563 3.891322612762451 293.5689697265625 C 1.704378247261047 291.3820190429688 0.4999893307685852 288.4743041992188 0.4999893307685852 285.3815307617188 L 0.4999893307685852 12.07874393463135 C 0.4999893307685852 8.985966682434082 1.704378247261047 6.078299522399902 3.891322612762451 3.891355276107788 C 6.078267097473145 1.704410791397095 8.985933303833008 0.5000219345092773 12.07876682281494 0.5000219345092773 L 187.2483215332031 0.5000219345092773 C 191.8701019287109 0.5000219345092773 195.1677703857422 1.378244161605835 198.2748718261719 3.436522006988525 C 201.5987701416016 5.638522148132324 228.5309906005859 20.43563270568848 233.4323272705078 23.07557678222656 C 234.0811614990234 23.42502212524414 234.6280975341797 23.72674369812012 235.1107177734375 23.99296569824219 C 238.1342620849609 25.66085433959961 238.3812713623047 25.79713249206543 242.1846008300781 25.79713249206543 C 242.4207153320313 25.79713249206543 242.6711578369141 25.79668807983398 242.9376525878906 25.79624366760254 C 243.2401580810547 25.79574394226074 243.5633850097656 25.79524421691895 243.9098815917969 25.79524421691895 L 440.8737182617188 25.79524421691895 C 443.9664916992188 25.79524421691895 446.8741455078125 26.9996337890625 449.0610961914063 29.18657684326172 C 451.248046875 31.37352180480957 452.4524230957031 34.28118896484375 452.4524230957031 37.37396621704102 L 452.4524230957031 285.3815307617188 C 452.4524230957031 288.4743041992188 451.248046875 291.3819580078125 449.0610961914063 293.5689697265625 C 446.8741455078125 295.7559204101563 443.9664916992188 296.9602966308594 440.8737182617188 296.9602966308594 Z" stroke="none"/>
    <path d="M 12.07870483398438 0.999969482421875 C 9.119476318359375 0.999969482421875 6.337371826171875 2.15234375 4.244873046875 4.244842529296875 C 2.152374267578125 6.33740234375 1 9.1195068359375 1 12.0787353515625 L 1 285.3815307617188 C 1 288.3407592773438 2.152374267578125 291.1228637695313 4.244873046875 293.2153625488281 C 6.337371826171875 295.307861328125 9.119476318359375 296.4602355957031 12.07870483398438 296.4602355957031 L 440.8736572265625 296.4602355957031 C 443.8329467773438 296.4602355957031 446.6150512695313 295.307861328125 448.7075500488281 293.2153625488281 C 450.800048828125 291.1228637695313 451.9524230957031 288.3407592773438 451.9524230957031 285.3815307617188 L 451.9524230957031 37.37396240234375 C 451.9524230957031 34.41473388671875 450.800048828125 31.63262939453125 448.7075500488281 29.54013061523438 C 446.6150512695313 27.4476318359375 443.8329467773438 26.29525756835938 440.8736572265625 26.29525756835938 L 243.9098815917969 26.29525756835938 C 243.5636596679688 26.29525756835938 243.2408294677734 26.29574584960938 242.9387054443359 26.29623413085938 C 242.6719818115234 26.29669189453125 242.4213714599609 26.29708862304688 242.1850433349609 26.29708862304688 C 238.3439331054688 26.29708862304688 238.0140991210938 26.16546630859375 234.8686065673828 24.430419921875 C 234.3871612548828 24.16485595703125 233.8415374755859 23.86392211914063 233.1952056884766 23.5157470703125 C 228.2907104492188 20.87408447265625 201.3342132568359 6.062957763671875 197.9987182617188 3.853363037109375 C 194.9796447753906 1.853302001953125 191.7645568847656 0.999969482421875 187.2483215332031 0.999969482421875 L 12.07870483398438 0.999969482421875 M 12.07870483398438 -3.0517578125e-05 C 12.07870483398438 -3.0517578125e-05 182.6825866699219 -3.0517578125e-05 187.2483215332031 -3.0517578125e-05 C 191.8140563964844 -3.0517578125e-05 195.2752685546875 0.849639892578125 198.5509948730469 3.019683837890625 C 201.8267059326172 5.189697265625 228.4212188720703 19.80856323242188 233.66943359375 22.63534545898438 C 238.3631744384766 25.16348266601563 237.9187164306641 25.297119140625 242.1850433349609 25.297119140625 C 242.6890411376953 25.297119140625 243.2581481933594 25.29525756835938 243.9098815917969 25.29525756835938 C 250.0785522460938 25.29525756835938 440.8736572265625 25.29525756835938 440.8736572265625 25.29525756835938 C 447.5445861816406 25.29525756835938 452.9524230957031 30.70306396484375 452.9524230957031 37.37396240234375 L 452.9524230957031 285.3815307617188 C 452.9524230957031 292.0523986816406 447.5445861816406 297.4602355957031 440.8736572265625 297.4602355957031 L 12.07870483398438 297.4602355957031 C 5.4078369140625 297.4602355957031 0 292.0523986816406 0 285.3815307617188 L 0 12.0787353515625 C 0 5.407867431640625 5.4078369140625 -3.0517578125e-05 12.07870483398438 -3.0517578125e-05 Z" stroke="none" fill="#1543af"/>
  </g>
</svg>
