<svg xmlns="http://www.w3.org/2000/svg" width="1150" height="750" viewBox="0 0 1150 750">
  <g id="패스_2347" data-name="패스 2347" fill="rgba(17,30,52,0.66)">
    <path d="M 1130.199951171875 749.5 L 934.9047241210938 749.5 L 19.79999923706055 749.5 C 13.02771472930908 749.5 8.225285530090332 747.9795532226563 5.118428707122803 744.851806640625 C 2.010714292526245 741.7230834960938 0.5 736.886962890625 0.5 730.0669555664063 L 0.5 19.93297004699707 C 0.5 13.11282634735107 2.010714292526245 8.276683807373047 5.118428707122803 5.148112297058105 C 8.225285530090332 2.020398139953613 13.02771472930908 0.499969482421875 19.79999923706055 0.499969482421875 L 225.4574279785156 0.499969482421875 C 227.8581390380859 0.499969482421875 229.7445678710938 0.8931123614311218 231.3941497802734 1.737112283706665 C 233.0132904052734 2.56554102897644 234.3950042724609 3.801540851593018 235.9715728759766 5.402683734893799 C 237.7888641357422 7.247969627380371 245.5084228515625 13.57682704925537 252.9738616943359 19.69725608825684 C 258.7205810546875 24.40868377685547 264.1485595703125 28.85882568359375 265.5867004394531 30.2175407409668 C 267.2025756835938 31.74396896362305 268.3742980957031 32.66639709472656 269.93701171875 33.16911315917969 C 271.3974304199219 33.63882827758789 273.0924377441406 33.72154235839844 276.114013671875 33.72154235839844 L 1130.199951171875 33.72154235839844 C 1136.972290039063 33.72154235839844 1141.774536132813 35.24197006225586 1144.881469726563 38.36968231201172 C 1147.9892578125 41.49825668334961 1149.5 46.33439636230469 1149.5 53.15439987182617 L 1149.5 731.0736694335938 C 1149.5 734.50537109375 1149.1259765625 737.324951171875 1148.356689453125 739.6935424804688 C 1147.595458984375 742.0376586914063 1146.46337890625 743.8851318359375 1144.895874023438 745.3412475585938 C 1143.3466796875 746.7803955078125 1141.397705078125 747.8136596679688 1138.937622070313 748.5001220703125 C 1136.526611328125 749.1729736328125 1133.66845703125 749.5 1130.199951171875 749.5 Z" stroke="none"/>
    <path d="M 19.800048828125 0.99993896484375 C 13.167724609375 0.99993896484375 8.4814453125 2.47210693359375 5.4732666015625 5.50042724609375 C 2.463134765625 8.53070068359375 1 13.25152587890625 1 19.93280029296875 L 1 730.0669555664063 C 1 736.7482299804688 2.4632568359375 741.46923828125 5.4732666015625 744.4993896484375 C 8.4814453125 747.52783203125 13.167724609375 749 19.800048828125 749 L 934.9047241210938 749 L 1130.199951171875 749 C 1133.622436523438 749 1136.4365234375 748.678955078125 1138.803344726563 748.0185546875 C 1141.184692382813 747.3541259765625 1143.066284179688 746.3583984375 1144.555541992188 744.9749755859375 C 1146.058959960938 743.5782470703125 1147.146850585938 741.8001098632813 1147.881225585938 739.5391235351563 C 1148.634033203125 737.2212524414063 1149 734.4520874023438 1149 731.0736694335938 L 1149 53.1544189453125 C 1149 46.47308349609375 1147.536865234375 41.75225830078125 1144.526733398438 38.72198486328125 C 1141.5185546875 35.69366455078125 1136.832275390625 34.2215576171875 1130.199951171875 34.2215576171875 L 276.114013671875 34.2215576171875 C 270.2468872070313 34.2215576171875 268.7882690429688 33.9298095703125 265.243408203125 30.58099365234375 C 263.818115234375 29.234375 258.3971557617188 24.79010009765625 252.6580200195313 20.0848388671875 C 245.181884765625 13.9556884765625 237.4512939453125 7.6177978515625 235.6152954101563 5.75341796875 C 234.0726928710938 4.18682861328125 232.7257080078125 2.9801025390625 231.166259765625 2.18212890625 C 229.5684204101563 1.36456298828125 227.8077392578125 0.99993896484375 225.4574584960938 0.99993896484375 L 19.800048828125 0.99993896484375 M 19.800048828125 -6.103515625e-05 C 19.800048828125 -6.103515625e-05 220.272705078125 -6.103515625e-05 225.4574584960938 -6.103515625e-05 C 230.6421508789063 -6.103515625e-05 233.0875854492188 1.76123046875 236.327880859375 5.05169677734375 C 239.568115234375 8.34228515625 262.6691284179688 26.77325439453125 265.9301147460938 29.8541259765625 C 269.191162109375 32.934814453125 270.3675537109375 33.2215576171875 276.114013671875 33.2215576171875 C 281.8602905273438 33.2215576171875 1130.199951171875 33.2215576171875 1130.199951171875 33.2215576171875 C 1143.896606445313 33.2215576171875 1150 39.3658447265625 1150 53.1544189453125 L 1150 731.0736694335938 C 1150 744.8622436523438 1143.896606445313 750 1130.199951171875 750 L 934.9047241210938 750 L 19.800048828125 750 C 6.1033935546875 750 0 743.8555297851563 0 730.0669555664063 L 0 19.93280029296875 C 0 6.14422607421875 6.1033935546875 -6.103515625e-05 19.800048828125 -6.103515625e-05 Z" stroke="none" fill="#1543af"/>
  </g>
</svg>
