<svg xmlns="http://www.w3.org/2000/svg" width="69.954" height="72.994" viewBox="0 0 69.954 72.994">
  <g id="그룹_113" data-name="그룹 113" transform="translate(-690.301 -274.164)">
    <path id="패스_154" data-name="패스 154" d="M714.543,381.588v1.258l3.553,2.072v-1.331Z" transform="translate(-14.044 -62.234)" fill="#999"/>
    <path id="패스_155" data-name="패스 155" d="M714.543,388.627v1.259l3.553,2.072v-1.333Z" transform="translate(-14.044 -66.312)" fill="#999"/>
    <path id="패스_156" data-name="패스 156" d="M699.053,355.38l-8.373-5.019v-6.893l14.661-8.993-15.04-8.739s.355-2.548,4.175-3.113l16.454,9Z" transform="translate(0 -28.074)" fill="#101114" opacity="0.15"/>
    <path id="패스_157" data-name="패스 157" d="M734.708,329.337l-12.495-7.324s-.431-1.293,2.369-2.154l14.865,7.755" transform="translate(-18.474 -26.472)" fill="#101114" opacity="0.15"/>
    <g id="그룹_122" data-name="그룹 122" transform="translate(698.244 274.164)">
      <g id="그룹_119" data-name="그룹 119" transform="translate(11.332)">
        <g id="그룹_118" data-name="그룹 118">
          <path id="패스_158" data-name="패스 158" d="M736.121,302.93c0,.63,1.369,1.672,3.055,1.672s3.054-1.042,3.054-1.672l-.814-26.058h-4.481Z" transform="translate(-736.121 -275.733)" fill="#fff"/>
          <path id="패스_159" data-name="패스 159" d="M742.537,275.3c0,.629-.554,1.139-2.24,1.139s-2.241-.51-2.241-1.139.555-1.139,2.241-1.139S742.537,274.673,742.537,275.3Z" transform="translate(-737.242 -274.164)" fill="#cc3411"/>
        </g>
        <path id="패스_160" data-name="패스 160" d="M737.476,289.625a5.833,5.833,0,0,0,4.946,0l-.1-3.606a5.607,5.607,0,0,1-4.754,0Z" transform="translate(-736.906 -281.032)" fill="#ea4a1a"/>
        <path id="패스_161" data-name="패스 161" d="M736.942,306.8a6.365,6.365,0,0,0,5.4,0l-.105-3.934a6.116,6.116,0,0,1-5.186,0Z" transform="translate(-736.597 -290.791)" fill="#ea4a1a"/>
        <path id="패스_162" data-name="패스 162" d="M736.436,324.755a6.872,6.872,0,0,0,5.87,0l-.114-4.315a6.608,6.608,0,0,1-5.642,0Z" transform="translate(-736.303 -300.973)" fill="#ea4a1a"/>
      </g>
      <path id="패스_163" data-name="패스 163" d="M709.424,332.246l26.262-15.029,9.848,13.233L718.5,345.17Z" transform="translate(-709.323 -299.106)" fill="#3267c0"/>
      <path id="패스_164" data-name="패스 164" d="M744.419,392.7v11.542l-35.237-19.852V372.7Z" transform="translate(-709.183 -331.247)" fill="#747479"/>
      <path id="패스_165" data-name="패스 165" d="M819.669,385.009l-26.723,14.823v11.542l26.774-14.927Z" transform="translate(-757.709 -338.38)" fill="#3f3f44"/>
      <path id="패스_166" data-name="패스 166" d="M744.419,388.8v11.54l-35.237-19.85V368.794Z" transform="translate(-709.183 -328.986)" fill="#ccc"/>
      <path id="패스_167" data-name="패스 167" d="M819.669,381.106l-26.723,14.824v11.54l26.774-14.926Z" transform="translate(-757.709 -336.119)" fill="#efefef"/>
      <path id="패스_168" data-name="패스 168" d="M779.008,417.151v1.259l3.555,2.072V419.15Z" transform="translate(-749.635 -357.001)" fill="#999"/>
      <path id="패스_169" data-name="패스 169" d="M779.008,424.193v1.258l3.555,2.072V426.19Z" transform="translate(-749.635 -361.081)" fill="#999"/>
      <path id="패스_170" data-name="패스 170" d="M766.119,410.037V411.3l3.553,2.074v-1.332Z" transform="translate(-742.167 -352.879)" fill="#999"/>
      <path id="패스_171" data-name="패스 171" d="M766.119,417.078v1.259l3.553,2.073v-1.332Z" transform="translate(-742.167 -356.959)" fill="#999"/>
      <path id="패스_172" data-name="패스 172" d="M753.224,402.924v1.258l3.554,2.073v-1.332Z" transform="translate(-734.697 -348.759)" fill="#999"/>
      <path id="패스_173" data-name="패스 173" d="M753.224,409.965v1.258l3.554,2.073v-1.333Z" transform="translate(-734.697 -352.838)" fill="#999"/>
      <path id="패스_174" data-name="패스 174" d="M740.328,395.812v1.258l3.555,2.074v-1.333Z" transform="translate(-727.226 -344.639)" fill="#999"/>
      <path id="패스_175" data-name="패스 175" d="M740.328,402.854v1.257l3.555,2.073v-1.332Z" transform="translate(-727.226 -348.718)" fill="#999"/>
      <path id="패스_176" data-name="패스 176" d="M727.437,388.7v1.257l3.553,2.073V390.7Z" transform="translate(-719.758 -340.519)" fill="#999"/>
      <path id="패스_177" data-name="패스 177" d="M727.437,395.74V397l3.553,2.073v-1.332Z" transform="translate(-719.758 -344.597)" fill="#999"/>
      <g id="그룹_121" data-name="그룹 121" transform="translate(21.43 9.914)">
        <g id="그룹_120" data-name="그룹 120">
          <path id="패스_178" data-name="패스 178" d="M760.126,318.859c0,.463,1.041,1.228,2.324,1.228s2.323-.765,2.323-1.228l-.619-19.14h-3.409Z" transform="translate(-760.126 -298.883)" fill="#fff"/>
          <path id="패스_179" data-name="패스 179" d="M765.007,298.567c0,.462-.422.837-1.7.837s-1.7-.374-1.7-.837.422-.836,1.7-.836S765.007,298.1,765.007,298.567Z" transform="translate(-760.979 -297.731)" fill="#cc3411"/>
        </g>
        <path id="패스_180" data-name="패스 180" d="M761.159,309.087a4.579,4.579,0,0,0,3.762,0l-.073-2.649a4.4,4.4,0,0,1-3.616,0Z" transform="translate(-760.724 -302.775)" fill="#ea4a1a"/>
        <path id="패스_181" data-name="패스 181" d="M760.751,321.7a5,5,0,0,0,4.1,0l-.08-2.889a4.8,4.8,0,0,1-3.944,0Z" transform="translate(-760.488 -309.944)" fill="#ea4a1a"/>
        <path id="패스_182" data-name="패스 182" d="M760.365,334.891a5.4,5.4,0,0,0,4.466,0l-.087-3.17a5.184,5.184,0,0,1-4.292,0Z" transform="translate(-760.264 -317.422)" fill="#ea4a1a"/>
      </g>
      <path id="패스_183" data-name="패스 183" d="M729.665,343.462l26.261-15.028,9.848,13.233-27.03,14.721Z" transform="translate(-721.048 -305.605)" fill="#3e79ce"/>
      <path id="패스_184" data-name="패스 184" d="M750.394,355.168l26.26-15.028,9.848,13.233-27.031,14.721Z" transform="translate(-733.058 -312.386)" fill="#4b8ddd"/>
      <path id="패스_185" data-name="패스 185" d="M771.365,366.476l26.159-13.9,9.643,12L780.443,379.4Z" transform="translate(-745.207 -319.59)" fill="#64a0dd"/>
      <path id="패스_186" data-name="패스 186" d="M744.419,379.686l-9.078-12.926v7.847l-8.771-11.848v6.464l-8.617-11.54v6.769l-8.771-11.386v7.54Z" transform="translate(-709.183 -319.874)" fill="#285699"/>
    </g>
  </g>
</svg>
