<?xml version="1.0" encoding="utf-8"?>
<!-- Generator: Adobe Illustrator 25.1.0, SVG Export Plug-In . SVG Version: 6.00 Build 0)  -->
<svg version="1.1" id="레이어_1" xmlns="http://www.w3.org/2000/svg" xmlns:xlink="http://www.w3.org/1999/xlink" x="0px"
	 y="0px" viewBox="0 0 70 73" style="enable-background:new 0 0 70 73;" xml:space="preserve">
<style type="text/css">
	.st0{fill:#999999;}
	.st1{opacity:0.15;fill:#101114;enable-background:new    ;}
	.st2{fill:#FFFFFF;}
	.st3{fill:#CC3411;}
	.st4{fill:#EA4A1A;}
	.st5{fill:#3267C0;}
	.st6{fill:#747479;}
	.st7{fill:#3F3F44;}
	.st8{fill:#CCCCCC;}
	.st9{fill:#EFEFEF;}
	.st10{fill:#3E79CE;}
	.st11{fill:#4B8DDD;}
	.st12{fill:#64A0DD;}
	.st13{fill:#285699;}
</style>
<g id="그룹_113" transform="translate(-690.301 -274.164)">
	<path id="패스_154" class="st0" d="M700.5,319.4v1.3l3.6,2.1v-1.3L700.5,319.4z"/>
	<path id="패스_155" class="st0" d="M700.5,322.3v1.3l3.6,2.1v-1.3L700.5,322.3z"/>
	<path id="패스_156" class="st1" d="M699.1,327.3l-8.4-5v-6.9l14.7-9l-15-8.7c0,0,0.4-2.5,4.2-3.1l16.5,9L699.1,327.3z"/>
	<path id="패스_157" class="st1" d="M716.2,302.9l-12.5-7.3c0,0-0.4-1.3,2.4-2.2l14.9,7.8"/>
	<g id="그룹_122" transform="translate(698.244 274.164)">
		<g id="그룹_119" transform="translate(11.332)">
			<g id="그룹_118">
				<path id="패스_158" class="st2" d="M0,27.2c0,0.6,1.4,1.7,3.1,1.7s3.1-1,3.1-1.7L5.3,1.1H0.8L0,27.2z"/>
				<path id="패스_159" class="st3" d="M5.3,1.1c0,0.6-0.6,1.1-2.2,1.1S0.8,1.8,0.8,1.1S1.4,0,3.1,0S5.3,0.5,5.3,1.1z"/>
			</g>
			<path id="패스_160" class="st4" d="M0.6,8.6c1.6,0.7,3.4,0.7,4.9,0L5.4,5C3.9,5.7,2.2,5.7,0.7,5L0.6,8.6z"/>
			<path id="패스_161" class="st4" d="M0.3,16c1.7,0.8,3.7,0.8,5.4,0l-0.1-3.9c-1.6,0.8-3.5,0.8-5.2,0L0.3,16z"/>
			<path id="패스_162" class="st4" d="M0.1,23.8c1.9,0.9,4,0.9,5.9,0l-0.1-4.3c-1.8,0.8-3.9,0.8-5.6,0L0.1,23.8z"/>
		</g>
		<path id="패스_163" class="st5" d="M0.1,33.1l26.3-15l9.8,13.2l-27,14.7L0.1,33.1z"/>
		<path id="패스_164" class="st6" d="M35.2,61.5V73L0,53.1V41.5L35.2,61.5z"/>
		<path id="패스_165" class="st7" d="M62,46.6L35.2,61.5V73L62,58.1L62,46.6z"/>
		<path id="패스_166" class="st8" d="M35.2,59.8v11.5L0,51.5V39.8L35.2,59.8z"/>
		<path id="패스_167" class="st9" d="M62,45L35.2,59.8v11.5L62,56.4L62,45z"/>
		<path id="패스_168" class="st0" d="M29.4,60.1v1.3l3.6,2.1v-1.3L29.4,60.1z"/>
		<path id="패스_169" class="st0" d="M29.4,63.1v1.3l3.6,2.1v-1.3L29.4,63.1z"/>
		<path id="패스_170" class="st0" d="M24,57.2v1.3l3.6,2.1v-1.3L24,57.2z"/>
		<path id="패스_171" class="st0" d="M24,60.1v1.3l3.6,2.1v-1.3L24,60.1z"/>
		<path id="패스_172" class="st0" d="M18.5,54.2v1.3l3.6,2.1v-1.3L18.5,54.2z"/>
		<path id="패스_173" class="st0" d="M18.5,57.1v1.3l3.6,2.1v-1.3L18.5,57.1z"/>
		<path id="패스_174" class="st0" d="M13.1,51.2v1.3l3.6,2.1v-1.3L13.1,51.2z"/>
		<path id="패스_175" class="st0" d="M13.1,54.1v1.3l3.6,2.1v-1.3L13.1,54.1z"/>
		<path id="패스_176" class="st0" d="M7.7,48.2v1.3l3.6,2.1v-1.3L7.7,48.2z"/>
		<path id="패스_177" class="st0" d="M7.7,51.1v1.3l3.6,2.1v-1.3L7.7,51.1z"/>
		<g id="그룹_121" transform="translate(21.43 9.914)">
			<g id="그룹_120">
				<path id="패스_178" class="st2" d="M0,20c0,0.5,1,1.2,2.3,1.2s2.3-0.8,2.3-1.2L4,0.8H0.6L0,20z"/>
				<path id="패스_179" class="st3" d="M4,0.8c0,0.5-0.4,0.8-1.7,0.8S0.6,1.3,0.6,0.8S1,0,2.3,0S4,0.4,4,0.8z"/>
			</g>
			<path id="패스_180" class="st4" d="M0.4,6.3c1.2,0.5,2.6,0.5,3.8,0L4.1,3.7C3,4.2,1.7,4.2,0.5,3.7L0.4,6.3z"/>
			<path id="패스_181" class="st4" d="M0.3,11.8c1.3,0.6,2.8,0.6,4.1,0L4.3,8.9C3,9.4,1.6,9.4,0.3,8.9L0.3,11.8z"/>
			<path id="패스_182" class="st4" d="M0.1,17.5c1.4,0.6,3,0.6,4.5,0l-0.1-3.2c-1.4,0.6-2.9,0.6-4.3,0L0.1,17.5z"/>
		</g>
		<path id="패스_183" class="st10" d="M8.6,37.9l26.3-15l9.8,13.2l-27,14.7L8.6,37.9z"/>
		<path id="패스_184" class="st11" d="M17.3,42.8l26.3-15L53.4,41l-27,14.7L17.3,42.8z"/>
		<path id="패스_185" class="st12" d="M26.2,46.9L52.3,33L62,45L35.2,59.8L26.2,46.9z"/>
		<path id="패스_186" class="st13" d="M35.2,59.8l-9.1-12.9v7.8l-8.8-11.8v6.5L8.8,37.8v6.8L0,33.2v7.5L35.2,59.8z"/>
	</g>
</g>
</svg>
